<svg width="50" height="50" viewBox="0 0 50 50" fill="none" xmlns="http://www.w3.org/2000/svg" xmlns:xlink="http://www.w3.org/1999/xlink">
<path d="M24.299,5.937C21.067,5.967 18.428,8.606 18.428,11.867L18.428,18.983C18.428,25.683 12.973,31.139 6.272,31.139L6.272,18.093C6.272,14.743 7.636,11.689 9.83,9.495C12.024,7.301 15.078,5.937 18.428,5.937L24.21,5.937C24.239,5.937 24.269,5.937 24.299,5.937Z" transform="rotate(-90 15.285 18.538)" fill="#00306E" stroke="#FFFFFF" stroke-width="2" stroke-miterlimit="10"/>
<path d="M10.992,13.185L10.992,7.552C10.992,4.29 13.602,1.652 16.863,1.622C20.035,1.652 22.555,4.231 22.555,7.404C22.555,9.005 21.903,10.457 20.865,11.495C19.828,12.533 18.375,13.185 16.774,13.185L15.44,13.185Z" transform="rotate(-90 16.774 7.404)" fill="#00306E" stroke="#FFFFFF" stroke-width="2" stroke-miterlimit="10"/>
<path d="M24.993,41.766C28.224,41.737 30.863,39.098 30.863,35.837L30.863,28.721C30.863,22.02 36.319,16.565 43.019,16.565L43.019,29.611C43.019,32.961 41.655,36.015 39.461,38.209C37.267,40.403 34.214,41.766 30.863,41.766L25.082,41.766C25.022,41.766 24.993,41.766 24.993,41.766Z" transform="rotate(-90 34.006 29.166)" fill="#00306E" stroke="#FFFFFF" stroke-width="2" stroke-miterlimit="10"/>
<path d="M38.278,34.537L38.278,40.171C38.278,43.432 35.669,46.071 32.408,46.1C29.235,46.071 26.715,43.491 26.715,40.319C26.715,38.718 27.367,37.265 28.405,36.227C29.443,35.19 30.896,34.537 32.497,34.537L33.86,34.537Z" transform="rotate(-90 32.497 40.319)" fill="#00306E" stroke="#FFFFFF" stroke-width="2" stroke-miterlimit="10"/>
</svg>
