<svg width="64" height="64" viewBox="0 0 64 64" fill="none" xmlns="http://www.w3.org/2000/svg" xmlns:xlink="http://www.w3.org/1999/xlink">
<mask id="mask_0_8_2110" style="mask-type:alpha" maskUnits="userSpaceOnUse" x="0" y="0" width="32" height="32">
<rect  x="0" y="0" width="64" height="64" fill="#000000"/>
</mask>
<g mask="url(#mask_0_8_2110)">
<path d="M27.341,15.692L28.083,26.731L28.452,32.28C28.456,32.851 28.545,33.418 28.718,33.963C29.163,35.02 30.234,35.692 31.399,35.645L49.151,34.484C49.92,34.471 50.662,34.759 51.215,35.283C51.675,35.72 51.973,36.292 52.067,36.907L52.098,37.28C51.363,47.453 43.892,55.938 33.741,58.128C23.589,60.318 13.179,55.691 8.163,46.76C6.717,44.165 5.814,41.313 5.506,38.371C5.378,37.5 5.321,36.62 5.337,35.74C5.321,24.834 13.088,15.405 23.959,13.132C25.268,12.928 26.55,13.621 27.075,14.815C27.211,15.091 27.301,15.387 27.341,15.692Z" fill="#FFFFFF"/>
<g opacity="0.4" style="isolation:isolate">
<path d="M58.667,26.166L58.648,26.253L58.594,26.379L58.602,26.726C58.574,27.186 58.397,27.628 58.091,27.985C57.772,28.357 57.337,28.611 56.858,28.709L56.566,28.749L36.083,30.076C35.402,30.143 34.724,29.924 34.217,29.472C33.795,29.095 33.525,28.587 33.449,28.039L32.074,7.587C32.05,7.518 32.05,7.443 32.074,7.373C32.093,6.81 32.341,6.277 32.763,5.894C33.185,5.511 33.746,5.31 34.32,5.335C46.48,5.645 56.7,14.389 58.667,26.166Z" fill="#FFFFFF"/>
</g>
</g>
</svg>
