<svg width="52" height="52" viewBox="0 0 52 52" fill="none" xmlns="http://www.w3.org/2000/svg" xmlns:xlink="http://www.w3.org/1999/xlink">
<path d="M2,0C0.895,0 0,0.895 0,2C0,3.105 0.895,4 2,4L2,0ZM7.333,2L9.294,1.608C9.108,0.673 8.287,0 7.333,0L7.333,2ZM39.333,28.667L39.333,30.667C40.091,30.667 40.783,30.239 41.122,29.561L39.333,28.667ZM50,7.333L51.789,8.228C52.099,7.608 52.066,6.872 51.701,6.282C51.337,5.692 50.693,5.333 50,5.333L50,7.333ZM6.552,34.781L5.138,33.367L5.138,33.367L6.552,34.781ZM2,4L7.333,4L7.333,0L2,0L2,4ZM12.667,30.667L39.333,30.667L39.333,26.667L12.667,26.667L12.667,30.667ZM41.122,29.561L51.789,8.228L48.211,6.439L37.544,27.772L41.122,29.561ZM5.372,2.392L6.439,7.726L10.361,6.941L9.294,1.608L5.372,2.392ZM6.439,7.726L10.706,29.059L14.628,28.274L10.361,6.941L6.439,7.726ZM8.4,9.333L50,9.333L50,5.333L8.4,5.333L8.4,9.333ZM42.667,44.667C42.667,46.508 41.174,48 39.333,48L39.333,52C43.383,52 46.667,48.717 46.667,44.667L42.667,44.667ZM39.333,48C37.492,48 36,46.508 36,44.667L32,44.667C32,48.717 35.283,52 39.333,52L39.333,48ZM36,44.667C36,42.826 37.492,41.333 39.333,41.333L39.333,37.333C35.283,37.333 32,40.617 32,44.667L36,44.667ZM39.333,41.333C41.174,41.333 42.667,42.826 42.667,44.667L46.667,44.667C46.667,40.617 43.383,37.333 39.333,37.333L39.333,41.333ZM16,44.667C16,46.508 14.508,48 12.667,48L12.667,52C16.717,52 20,48.717 20,44.667L16,44.667ZM12.667,48C10.826,48 9.333,46.508 9.333,44.667L5.333,44.667C5.333,48.717 8.617,52 12.667,52L12.667,48ZM9.333,44.667C9.333,42.826 10.826,41.333 12.667,41.333L12.667,37.333C8.617,37.333 5.333,40.617 5.333,44.667L9.333,44.667ZM12.667,41.333C14.508,41.333 16,42.826 16,44.667L20,44.667C20,40.617 16.717,37.333 12.667,37.333L12.667,41.333ZM8.438,41.333L39.333,41.333L39.333,37.333L8.438,37.333L8.438,41.333ZM7.966,36.195L14.081,30.081L11.252,27.252L5.138,33.367L7.966,36.195ZM8.438,37.333C7.844,37.333 7.547,36.615 7.966,36.195L5.138,33.367C2.198,36.307 4.28,41.333 8.438,41.333L8.438,37.333Z" fill="#737791"/>
</svg>
