<svg width="40" height="42" viewBox="0 0 40 42" fill="none" xmlns="http://www.w3.org/2000/svg" xmlns:xlink="http://www.w3.org/1999/xlink">
<path d="M5.875,35.07C4.715,35.07 3.602,34.609 2.781,33.788C1.961,32.968 1.5,31.855 1.5,30.695L1.5,24.445C1.5,23.947 1.698,23.47 2.049,23.119C2.401,22.767 2.878,22.57 3.375,22.57C3.872,22.57 4.349,22.767 4.701,23.119C5.052,23.47 5.25,23.947 5.25,24.445L5.25,30.695C5.25,31.04 5.53,31.32 5.875,31.32L32.125,31.32C32.291,31.32 32.45,31.254 32.567,31.137C32.684,31.019 32.75,30.86 32.75,30.695L32.75,24.445C32.75,23.947 32.948,23.47 33.299,23.119C33.651,22.767 34.128,22.57 34.625,22.57C35.122,22.57 35.599,22.767 35.951,23.119C36.302,23.47 36.5,23.947 36.5,24.445L36.5,30.695C36.5,31.855 36.039,32.968 35.219,33.788C34.398,34.609 33.285,35.07 32.125,35.07L5.875,35.07Z" fill="#136DC7"/>
<path d="M28.451,11.87C28.625,12.044 28.763,12.25 28.857,12.478C28.951,12.705 29,12.949 29,13.195C29,13.441 28.951,13.684 28.857,13.912C28.763,14.139 28.625,14.346 28.451,14.52C28.277,14.694 28.07,14.832 27.843,14.926C27.616,15.02 27.372,15.068 27.126,15.068C26.88,15.068 26.636,15.02 26.409,14.926C26.181,14.832 25.975,14.694 25.801,14.52L20.876,9.597L20.876,23.82C20.876,24.317 20.678,24.794 20.327,25.145C19.975,25.497 19.498,25.695 19.001,25.695C18.504,25.695 18.027,25.497 17.675,25.145C17.323,24.794 17.126,24.317 17.126,23.82L17.126,9.597L12.201,14.52C12.027,14.694 11.82,14.832 11.593,14.926C11.366,15.02 11.122,15.068 10.876,15.068C10.63,15.068 10.386,15.02 10.159,14.926C9.931,14.832 9.725,14.694 9.551,14.52C9.377,14.346 9.239,14.139 9.145,13.912C9.05,13.684 9.002,13.441 9.002,13.195C9.002,12.949 9.05,12.705 9.145,12.478C9.239,12.25 9.377,12.044 9.551,11.87L17.676,3.745C17.85,3.57 18.056,3.432 18.284,3.338C18.511,3.244 18.755,3.195 19.001,3.195C19.247,3.195 19.491,3.244 19.718,3.338C19.945,3.432 20.152,3.57 20.326,3.745L28.451,11.87Z" fill="#136DC7"/>
</svg>
