<svg width="48" height="56" viewBox="0 0 48 56" fill="none" xmlns="http://www.w3.org/2000/svg" xmlns:xlink="http://www.w3.org/1999/xlink">
<path d="M42.667,13L37.333,13C37.333,5.533 31.467,-0.333 24,-0.333C16.533,-0.333 10.667,5.533 10.667,13L5.333,13C2.4,13 0,15.4 0,18.333L0,50.333C0,53.267 2.4,55.667 5.333,55.667L42.667,55.667C45.6,55.667 48,53.267 48,50.333L48,18.333C48,15.4 45.6,13 42.667,13ZM24,5C28.533,5 32,8.467 32,13L16,13C16,8.467 19.467,5 24,5ZM42.667,50.333L5.333,50.333L5.333,18.333L42.667,18.333L42.667,50.333ZM24,29C19.467,29 16,25.533 16,21L10.667,21C10.667,28.467 16.533,34.333 24,34.333C31.467,34.333 37.333,28.467 37.333,21L32,21C32,25.533 28.533,29 24,29Z" fill="#737791"/>
</svg>
