<svg width="48" height="58" viewBox="0 0 48 58" fill="none" xmlns="http://www.w3.org/2000/svg" xmlns:xlink="http://www.w3.org/1999/xlink">
<path d="M42.667,14L37.333,14C37.333,6.533 31.467,0.667 24,0.667C16.533,0.667 10.667,6.533 10.667,14L5.333,14C2.4,14 0,16.4 0,19.333L0,51.333C0,54.267 2.4,56.667 5.333,56.667L42.667,56.667C45.6,56.667 48,54.267 48,51.333L48,19.333C48,16.4 45.6,14 42.667,14ZM24,6C28.533,6 32,9.467 32,14L16,14C16,9.467 19.467,6 24,6ZM42.667,51.333L5.333,51.333L5.333,19.333L42.667,19.333L42.667,51.333ZM24,30C19.467,30 16,26.533 16,22L10.667,22C10.667,29.467 16.533,35.333 24,35.333C31.467,35.333 37.333,29.467 37.333,22L32,22C32,26.533 28.533,30 24,30Z" fill="#737791"/>
</svg>
